<?xml version="1.0" standalone="no"?>
<!DOCTYPE svg PUBLIC "-//W3C//DTD SVG 20010904//EN"
 "http://www.w3.org/TR/2001/REC-SVG-20010904/DTD/svg10.dtd">
<svg version="1.0" xmlns="http://www.w3.org/2000/svg"
 width="399.000000pt" height="444.000000pt" viewBox="0 0 399.000000 444.000000"
 preserveAspectRatio="xMidYMid meet">

<g transform="translate(0.000000,444.000000) scale(0.100000,-0.100000)"
fill="#000000" stroke="none">
<path d="M1802 4389 c-57 -29 -93 -83 -101 -155 l-6 -55 -75 -25 c-353 -117
-653 -396 -800 -743 -33 -76 -110 -357 -110 -399 0 -14 -12 -34 -27 -47 -16
-13 -50 -42 -76 -64 -77 -65 -135 -139 -179 -228 -38 -76 -41 -91 -46 -181 -5
-110 9 -175 58 -271 71 -140 239 -282 442 -376 84 -39 87 -41 108 -92 34 -83
96 -172 181 -259 l79 -81 -21 -19 c-53 -46 -77 -171 -45 -232 19 -36 55 -67
91 -79 l30 -10 6 -104 c6 -102 16 -153 45 -234 8 -22 28 -138 44 -259 24 -176
28 -222 18 -235 -7 -9 -27 -33 -45 -54 -46 -52 -45 -100 4 -126 28 -15 254
-15 287 0 28 13 42 42 56 119 13 73 41 150 54 150 6 -1 38 -7 71 -15 79 -19
245 -19 318 0 32 8 61 15 66 15 11 0 38 -93 50 -170 8 -50 16 -70 37 -88 25
-21 32 -22 166 -20 137 3 141 4 159 28 25 34 15 70 -33 125 -35 40 -39 49 -34
83 3 20 17 118 32 217 14 99 37 213 50 252 28 84 48 221 39 272 -6 35 -5 37
44 59 67 30 96 77 95 152 -1 53 -20 106 -51 142 -14 15 -7 24 70 100 91 89
145 164 192 270 29 64 32 68 91 93 100 43 244 142 324 224 249 253 235 569
-35 819 l-74 68 -26 134 c-29 149 -62 261 -105 358 -97 212 -272 418 -466 548
-85 56 -240 134 -309 154 l-41 12 -11 69 c-12 81 -44 129 -103 159 -35 18 -59
20 -242 20 -187 0 -206 -2 -246 -21z m441 -80 c59 -30 57 -10 57 -538 l0 -484
-77 7 c-42 3 -156 6 -255 6 l-178 0 0 476 0 476 34 34 34 34 182 0 c114 0 189
-4 203 -11z m-560 -247 c3 7 6 -163 6 -378 1 -430 5 -404 -59 -404 -47 0 -308
-48 -407 -75 -99 -26 -249 -80 -335 -120 -29 -13 -53 -23 -54 -22 -11 14 40
239 72 314 3 6 -8 16 -23 21 l-28 10 26 1 c30 1 50 22 69 71 8 19 17 37 20 40
3 3 17 23 30 45 87 146 240 296 394 387 32 19 46 34 47 50 1 17 2 19 6 6 2
-10 6 -18 8 -18 2 0 47 18 101 39 68 28 102 37 110 30 8 -7 14 -6 17 3z m890
-59 c10 -3 17 0 18 8 0 8 4 4 9 -7 5 -12 34 -36 65 -54 172 -98 341 -279 436
-464 25 -50 43 -72 60 -77 16 -5 18 -7 7 -8 -23 -1 -23 -14 6 -98 26 -78 45
-160 51 -223 l4 -40 -32 14 c-18 8 -59 26 -92 41 -157 71 -354 129 -540 159
-55 9 -115 19 -132 22 l-33 5 0 375 c0 286 3 378 13 388 10 12 23 10 77 -11
36 -14 73 -27 83 -30z m-138 -827 c623 -86 1043 -333 1107 -651 21 -104 -23
-254 -101 -345 l-30 -35 15 49 c8 27 14 66 14 87 0 50 -32 133 -68 178 -16 20
-32 47 -35 61 -12 49 -70 121 -141 177 -357 279 -1145 386 -1799 243 -380 -83
-664 -249 -713 -418 -9 -31 -30 -85 -46 -119 -27 -55 -30 -70 -27 -135 5 -79
28 -138 77 -192 19 -21 12 -18 -24 12 -65 53 -126 131 -160 206 -41 89 -45
208 -10 299 32 84 68 137 142 208 219 207 564 335 1039 384 173 18 596 13 760
-9z m-217 -525 c28 -18 52 -35 52 -38 0 -2 -7 -18 -16 -35 -30 -57 4 -127 68
-143 17 -4 45 0 73 11 43 16 48 16 81 1 49 -24 88 -21 122 8 29 24 30 24 98
10 90 -18 226 -35 287 -35 l49 0 -4 -247 c-4 -236 -6 -251 -30 -321 -15 -40
-45 -106 -69 -145 -51 -88 -213 -253 -255 -262 -16 -3 -49 -12 -73 -19 l-44
-15 -76 70 c-84 77 -211 147 -316 174 -85 21 -244 19 -337 -4 -126 -32 -210
-82 -319 -186 l-58 -56 -52 18 c-104 36 -251 189 -323 338 -60 123 -68 166
-73 421 l-5 231 118 6 c66 4 158 13 206 21 85 14 89 14 127 -7 38 -21 39 -21
98 -3 55 17 62 17 91 2 48 -25 89 -21 123 13 31 31 39 83 19 121 -9 16 0 25
58 63 37 25 94 70 127 100 l59 54 71 -56 c39 -31 94 -71 123 -90z m-1306 -371
c-2 -80 -6 -147 -8 -149 -1 -2 -19 0 -39 3 -77 15 -136 102 -121 180 12 61 88
118 151 113 19 -2 20 -8 17 -147z m2327 122 c67 -49 81 -114 42 -190 -24 -47
-63 -72 -119 -75 l-37 -2 -3 139 c-2 105 1 142 10 148 19 13 79 1 107 -20z
m-2359 -434 c0 -10 -2 -18 -4 -18 -6 0 -126 70 -126 73 0 2 29 -6 65 -17 48
-15 65 -25 65 -38z m2340 27 c0 -2 -13 -11 -30 -20 -24 -13 -30 -13 -30 -2 0
8 3 17 7 20 7 8 53 10 53 2z m-1105 -400 c115 -20 228 -79 317 -165 56 -54 69
-72 63 -87 -4 -10 -10 -43 -12 -74 -7 -77 21 -130 89 -172 l51 -32 -6 -100
c-3 -55 -15 -128 -25 -162 -58 -184 -209 -335 -398 -399 -392 -131 -801 159
-807 575 -2 66 2 96 10 98 7 3 27 14 45 26 70 48 100 132 74 208 -15 42 -14
43 17 79 73 84 166 148 263 180 122 41 197 47 319 25z m-693 -252 c77 -77 26
-203 -83 -205 -110 -1 -145 128 -58 215 26 26 35 29 71 24 27 -4 51 -15 70
-34z m1293 15 c54 -43 72 -134 34 -182 -40 -51 -117 -51 -170 0 -54 52 -43
144 23 184 43 26 78 25 113 -2z m-1190 -927 c14 -134 13 -131 51 -131 25 0 34
4 35 18 1 16 2 16 6 0 7 -28 40 -22 47 7 8 33 -1 47 -25 40 -13 -4 -21 -1 -26
12 -9 24 -45 53 -60 48 -13 -4 -26 22 -14 30 5 2 14 -2 21 -10 7 -9 39 -32 71
-51 l57 -36 -13 -31 c-13 -32 -14 -32 -92 -35 l-79 -3 -13 108 c-8 59 -16 115
-19 123 -3 9 5 5 21 -9 20 -18 27 -36 32 -80z m987 -23 l-16 -118 -81 0 -82 0
-10 35 -11 34 53 30 c29 17 56 35 60 41 12 20 26 11 15 -10 -6 -11 -8 -25 -5
-30 3 -5 0 -12 -6 -16 -8 -5 -9 -3 -4 6 6 10 4 12 -9 7 -11 -5 -15 -3 -10 4 4
7 3 10 -2 7 -67 -31 -77 -41 -67 -77 5 -18 12 -21 57 -20 47 2 48 2 16 8 l-35
7 38 5 c29 4 37 2 37 -11 1 -13 2 -13 9 0 13 23 19 150 7 142 -6 -3 5 13 24
35 19 23 35 41 36 40 1 -1 -5 -55 -14 -119z m-872 -237 c0 -48 -6 -51 -121
-51 -101 0 -107 6 -57 57 30 31 35 33 105 33 l73 0 0 -39z m892 2 c21 -20 38
-41 38 -45 0 -4 -45 -8 -100 -8 -108 0 -120 6 -120 64 0 26 1 26 72 26 70 0
73 -1 110 -37z"/>
<path d="M1502 2310 c-38 -17 -43 -23 -40 -47 3 -31 16 -32 116 -17 32 4 55 1
83 -11 45 -21 69 -10 69 32 0 55 -143 82 -228 43z"/>
<path d="M2348 2314 c-43 -18 -58 -49 -34 -72 14 -14 22 -14 61 -4 60 16 90
15 126 -4 33 -17 64 -12 73 12 24 62 -129 108 -226 68z"/>
<path d="M2030 2126 c0 -2 7 -7 16 -10 8 -3 12 -2 9 4 -6 10 -25 14 -25 6z"/>
<path d="M1804 1961 c-47 -12 -54 -19 -54 -56 0 -44 46 -97 114 -132 67 -35
190 -43 264 -19 124 42 197 141 141 192 -19 17 -40 19 -228 21 -113 1 -220 -2
-237 -6z"/>
<path d="M1886 1465 c-68 -18 -76 -22 -56 -35 12 -8 11 -10 -5 -10 -32 0 -63
-27 -71 -63 l-7 -32 -9 33 c-5 17 -12 32 -17 32 -4 0 -36 -29 -70 -65 -259
-269 -137 -702 228 -809 177 -52 406 27 512 176 22 30 22 31 4 44 -31 23 -53
16 -91 -25 -82 -92 -195 -136 -330 -129 -336 18 -505 421 -281 676 29 32 72
70 97 84 195 112 443 54 558 -130 50 -79 65 -142 60 -246 -5 -85 -12 -111 -56
-198 -8 -16 26 -7 52 13 16 13 26 30 26 47 l1 27 13 -24 13 -24 12 34 c19 52
25 186 12 251 -34 162 -154 297 -316 357 -77 29 -200 36 -279 16z"/>
<path d="M1889 1271 c-13 -18 -34 -32 -55 -36 -44 -8 -64 -38 -64 -98 0 -41 5
-53 30 -77 26 -25 30 -35 30 -84 0 -31 -4 -56 -10 -56 -5 0 -19 -9 -30 -20
-15 -15 -20 -33 -20 -75 0 -64 22 -95 68 -95 20 0 32 -8 44 -30 l17 -30 105 0
c114 0 136 9 136 55 0 17 9 29 29 40 65 33 95 126 63 198 -12 28 -17 50 -11
58 5 8 9 34 9 59 0 51 -25 100 -65 126 -15 10 -25 26 -25 40 0 40 -35 54 -137
54 -90 0 -93 -1 -114 -29z m109 -63 c2 -16 7 -28 12 -28 5 0 10 12 12 28 2 21
8 27 28 27 21 0 26 -5 28 -32 2 -21 9 -33 18 -33 9 0 29 -13 45 -29 37 -37 38
-79 4 -114 l-26 -25 31 -30 c22 -23 30 -40 30 -67 0 -50 -14 -71 -60 -95 -33
-17 -40 -26 -40 -50 0 -27 -3 -30 -30 -30 -27 0 -30 3 -30 30 0 17 -4 30 -10
30 -5 0 -10 -14 -10 -31 0 -28 -2 -30 -32 -27 -28 2 -33 7 -33 28 0 23 -5 25
-50 30 -48 5 -50 6 -50 35 0 27 4 30 33 33 l33 3 -3 122 -3 122 -32 3 c-29 3
-33 7 -33 33 0 26 3 29 34 29 49 0 66 9 66 34 0 30 9 38 40 34 19 -2 26 -10
28 -30z"/>
<path d="M1984 1106 c-3 -8 -4 -29 -2 -48 3 -30 6 -33 36 -31 86 3 84 93 -3
93 -14 0 -28 -6 -31 -14z"/>
<path d="M1980 905 l0 -55 33 0 c42 0 77 25 77 55 0 35 -26 55 -71 55 l-39 0
0 -55z"/>
</g>
</svg>
