<svg width="21" height="21" viewBox="0 0 21 21" fill="none" xmlns="http://www.w3.org/2000/svg">
<path d="M9.83646 10.1667C11.761 10.1667 13.3213 8.45044 13.3213 6.33336C13.3213 4.21622 12.809 2.5 9.83646 2.5C6.86392 2.5 6.35156 4.21622 6.35156 6.33336C6.35156 8.45044 7.91184 10.1667 9.83646 10.1667Z" stroke="white" stroke-width="2" stroke-linecap="round" stroke-linejoin="round"/>
<path d="M11.767 10.5C15.8892 11.1897 16.4279 12.2794 16.4933 16.1035L16.5005 16.6657C16.5005 16.6657 15.519 18.5 9.83423 18.5C4.14937 18.5 3.16797 16.6657 3.16797 16.6657L3.17754 15.9792C3.25267 12.2557 3.82413 11.1822 7.90138 10.5C7.90138 10.5 8.48174 11.1855 9.83423 11.1855C11.1867 11.1855 11.767 10.5 11.767 10.5Z" stroke="white" stroke-width="2" stroke-linecap="round" stroke-linejoin="round"/>
</svg>
